<svg width="170" height="40" viewBox="0 0 170 40" fill="none" xmlns="http://www.w3.org/2000/svg">
<path d="M62.7657 12.5661C59.5735 12.5661 56.6685 14.5435 54.9767 17.7967V13.1827H49.7839V35.4552H54.9767V24.0532C54.9767 19.689 57.9454 17.1748 60.9515 17.1748C63.6702 17.1748 66.1867 19.1096 66.1867 22.6924V35.4498H71.3369V21.7887C71.3369 15.6545 67.2561 12.5661 62.7657 12.5661Z" fill="white"/>
<path d="M86.915 12.8425C79.9559 12.8425 75.0452 17.7489 75.0452 24.4412C75.0452 31.1336 79.9559 36.0346 86.915 36.0346C92.1396 36.0346 96.1565 33.313 97.8112 29.1243H92.1396C91.0223 30.5489 89.2826 31.2186 86.915 31.2186C83.7919 31.2186 81.3392 29.5229 80.621 26.3123H98.7103V24.4412C98.6997 17.7435 93.8794 12.8425 86.915 12.8425ZM80.7593 22.0758C81.6052 19.1788 83.9249 17.6585 86.915 17.6585C89.8199 17.6585 92.2354 19.1309 93.076 22.0758H80.7593Z" fill="white"/>
<path d="M122.056 13.4219H115.672L111.357 19.8698H117.369L122.056 13.4219Z" fill="#0BC1C0"/>
<path d="M106.116 13.4219H99.684L107.452 24.2179L99.3276 35.4552H105.579L111.251 26.9821L116.965 35.4552H123.392L114.858 24.4412L106.116 13.4219Z" fill="white"/>
<path d="M135.937 12.8425C128.925 12.8425 124.02 17.6585 124.02 24.6645C124.02 32.202 129.643 36.0346 135.001 36.0346C138.48 36.0346 141.47 34.3867 142.811 31.1283V35.4552H147.674V24.6166C147.674 17.5256 142.854 12.8425 135.937 12.8425ZM135.889 31.0857C132.005 31.0857 129.372 28.3216 129.372 24.4412C129.372 20.5608 132.005 17.7914 135.889 17.7914C139.773 17.7914 142.364 20.5608 142.364 24.4412C142.364 28.3216 139.773 31.0857 135.889 31.0857Z" fill="white"/>
<path d="M155.49 3.47643C155.019 3.4637 154.551 3.54758 154.115 3.72288C153.678 3.89818 153.282 4.16116 152.952 4.49553C152.621 4.82991 152.363 5.22856 152.192 5.66679C152.022 6.10502 151.944 6.57349 151.962 7.0432C151.962 7.97789 152.334 8.8743 152.995 9.53523C153.657 10.1962 154.554 10.5675 155.49 10.5675C156.425 10.5675 157.322 10.1962 157.984 9.53523C158.645 8.8743 159.017 7.97789 159.017 7.0432C159.036 6.57349 158.957 6.10502 158.787 5.66679C158.617 5.22856 158.358 4.82991 158.028 4.49553C157.697 4.16116 157.301 3.89818 156.865 3.72288C156.428 3.54758 155.96 3.4637 155.49 3.47643Z" fill="white"/>
<path d="M158.129 13.4219H152.814V35.4552H158.129V13.4219Z" fill="white"/>
<path d="M169.333 3.79004H164.018V35.4552H169.333V3.79004Z" fill="white"/>
<path d="M1.36839 34.6685L10.6365 26.4346C10.7694 26.3171 10.8594 26.1588 10.8922 25.9845C10.9249 25.8103 10.8986 25.6301 10.8174 25.4724L0.538403 5.2731C0.522881 5.20261 0.479968 5.14117 0.419104 5.10229C0.358241 5.06342 0.284411 5.05029 0.213858 5.06579C0.143305 5.0813 0.0818079 5.12418 0.0428949 5.18498C0.00398197 5.24579 -0.00915898 5.31956 0.00636265 5.39005V34.0944C0.00690142 34.2518 0.0537436 34.4055 0.141061 34.5365C0.228379 34.6675 0.352319 34.77 0.497464 34.8312C0.64261 34.8923 0.802554 34.9095 0.957404 34.8806C1.11225 34.8517 1.25517 34.7779 1.36839 34.6685Z" fill="#0BC1C0"/>
<path d="M28.1566 15.5801L26.8318 12.9754L20.7932 1.16412C20.6152 0.813661 20.3434 0.519344 20.0082 0.313847C19.6729 0.10835 19.2871 -0.000288458 18.8938 5.75231e-07H3.60827C3.38031 0.00011395 3.15618 0.0585288 2.95722 0.169674C2.75825 0.28082 2.59108 0.440998 2.47161 0.634961C2.35214 0.828924 2.28435 1.05021 2.27471 1.27776C2.26506 1.5053 2.31387 1.73152 2.4165 1.93488L13.882 24.4625L15.2014 27.0671L21.1922 38.8306C21.3695 39.182 21.6409 39.4774 21.9762 39.6839C22.3116 39.8904 22.6977 39.9998 23.0916 40H38.3771C38.6052 39.9989 38.8293 39.9396 39.0281 39.8278C39.2269 39.716 39.3939 39.5554 39.5132 39.3611C39.6325 39.1669 39.7002 38.9454 39.71 38.7177C39.7197 38.49 39.6712 38.2635 39.5689 38.0598L28.2098 15.7342L28.1566 15.5801Z" fill="white"/>
<path d="M31.1945 15.2399L40.1381 32.8239C40.1646 32.8786 40.209 32.9226 40.2639 32.9486C40.3189 32.9745 40.3811 32.9809 40.4402 32.9666C40.4993 32.9523 40.5517 32.9182 40.5887 32.87C40.6257 32.8218 40.645 32.7624 40.6435 32.7017V7.82992C40.6448 7.67546 40.6011 7.52396 40.5177 7.39384C40.4344 7.26372 40.3151 7.16058 40.1742 7.09696C40.0333 7.03334 39.877 7.01197 39.7242 7.03546C39.5713 7.05894 39.4287 7.12627 39.3134 7.22925L31.3754 14.2778C31.2432 14.3957 31.1539 14.5541 31.1211 14.7281C31.0884 14.9021 31.1142 15.082 31.1945 15.2399Z" fill="white"/>
</svg>
